<?xml version="1.0" standalone="no"?>
<!DOCTYPE svg PUBLIC "-//W3C//DTD SVG 20010904//EN"
 "http://www.w3.org/TR/2001/REC-SVG-20010904/DTD/svg10.dtd">
<svg version="1.0" xmlns="http://www.w3.org/2000/svg"
 width="260.000000pt" height="260.000000pt" viewBox="0 0 260.000000 260.000000"
 preserveAspectRatio="xMidYMid meet">
<metadata>
Created by potrace 1.11, written by Peter Selinger 2001-2013
</metadata>
<g transform="translate(0.000000,260.000000) scale(0.100000,-0.100000)"
fill="#000000" stroke="none">
<path d="M1115 2488 c-68 -19 -171 -68 -215 -105 -28 -23 -92 -90 -120 -125
-33 -43 -87 -167 -100 -233 -15 -72 -19 -201 -8 -270 4 -27 10 -66 13 -85 3
-19 17 -75 31 -123 14 -49 24 -90 22 -92 -1 -2 -37 -19 -78 -39 -288 -138
-468 -313 -537 -519 -23 -71 -27 -98 -27 -207 0 -104 4 -135 22 -184 94 -256
316 -402 612 -404 230 -1 435 64 656 211 l81 54 39 -35 c189 -169 292 -222
441 -228 153 -6 258 44 364 170 73 87 69 81 101 136 95 164 95 166 56 186 -18
9 -33 12 -37 6 -117 -181 -235 -197 -416 -59 -33 25 -89 73 -124 105 l-65 59
61 84 c65 90 139 202 170 259 11 19 39 71 63 115 108 201 165 260 280 290 41
10 45 14 46 43 l0 32 -328 0 -328 0 0 -34 c0 -31 2 -34 40 -40 50 -8 114 -63
131 -113 24 -75 -8 -215 -77 -335 -44 -76 -133 -198 -144 -198 -4 0 -24 20
-44 45 -20 24 -42 50 -49 57 -7 7 -28 33 -47 58 -19 25 -37 47 -40 50 -15 13
-104 135 -164 225 -36 55 -70 105 -74 110 -4 6 -20 33 -36 60 -16 28 -37 65
-48 83 l-20 32 39 16 c144 57 302 154 381 235 57 58 117 167 127 234 8 48 7
138 -1 180 -11 55 -67 146 -118 192 -56 51 -144 95 -221 111 -76 16 -230 11
-310 -10z m164 -142 c72 -38 142 -167 158 -292 26 -201 -32 -310 -204 -390
-28 -13 -56 -24 -61 -24 -12 0 -95 212 -122 313 -44 158 -29 291 39 361 51 52
126 65 190 32z m-433 -1116 c82 -163 138 -255 248 -410 65 -92 203 -267 248
-314 l28 -29 -32 -20 c-105 -64 -214 -97 -304 -90 -166 13 -372 206 -452 425
-67 182 -50 348 47 447 36 36 151 115 157 107 1 0 27 -53 60 -116z"/>
</g>
</svg>
